{
	"asset":{
		"generator":"Khronos glTF Blender I/O v4.0.44",
		"version":"2.0"
	},
	"scene":0,
	"scenes":[
		{
			"name":"Scene",
			"nodes":[
				0
			]
		}
	],
	"nodes":[
		{
			"mesh":0,
			"name":"Camera"
		}
	],
	"meshes":[
		{
			"name":"Cube",
			"primitives":[
				{
					"attributes":{
						"POSITION":0,
						"NORMAL":1
					},
					"indices":2
				}
			]
		}
	],
	"accessors":[
		{
			"bufferView":0,
			"componentType":5126,
			"count":3321,
			"max":[
				1.1999998092651367,
				1.2999999523162842,
				0.5431036353111267
			],
			"min":[
				-3.2525274753570557,
				-0.29999977350234985,
				-0.5431036353111267
			],
			"type":"VEC3"
		},
		{
			"bufferView":1,
			"componentType":5126,
			"count":3321,
			"type":"VEC3"
		},
		{
			"bufferView":2,
			"componentType":5123,
			"count":15555,
			"type":"SCALAR"
		}
	],
	"bufferViews":[
		{
			"buffer":0,
			"byteLength":39852,
			"byteOffset":0,
			"target":34962
		},
		{
			"buffer":0,
			"byteLength":39852,
			"byteOffset":39852,
			"target":34962
		},
		{
			"buffer":0,
			"byteLength":31110,
			"byteOffset":79704,
			"target":34963
		}
	],
	"buffers":[
		{
			"byteLength":110816,
			"uri":"Camera.bin"
		}
	]
}
