{
	"asset":{
		"generator":"Khronos glTF Blender I/O v4.0.44",
		"version":"2.0"
	},
	"scene":0,
	"scenes":[
		{
			"name":"Scene",
			"nodes":[
				0
			]
		}
	],
	"nodes":[
		{
			"mesh":0,
			"name":"dragon"
		}
	],
	"meshes":[
		{
			"name":"dragon.001",
			"primitives":[
				{
					"attributes":{
						"POSITION":0,
						"NORMAL":1
					},
					"indices":2
				}
			]
		}
	],
	"accessors":[
		{
			"bufferView":0,
			"componentType":5126,
			"count":1183403,
			"max":[
				0.20739500224590302,
				0.4220220148563385,
				0.5277529954910278
			],
			"min":[
				-0.239779993891716,
				-0.2829579710960388,
				-0.47224703431129456
			],
			"type":"VEC3"
		},
		{
			"bufferView":1,
			"componentType":5126,
			"count":1183403,
			"type":"VEC3"
		},
		{
			"bufferView":2,
			"componentType":5125,
			"count":2613918,
			"type":"SCALAR"
		}
	],
	"bufferViews":[
		{
			"buffer":0,
			"byteLength":14200836,
			"byteOffset":0,
			"target":34962
		},
		{
			"buffer":0,
			"byteLength":14200836,
			"byteOffset":14200836,
			"target":34962
		},
		{
			"buffer":0,
			"byteLength":10455672,
			"byteOffset":28401672,
			"target":34963
		}
	],
	"buffers":[
		{
			"byteLength":38857344,
			"uri":"FullRes.bin"
		}
	]
}
