{
	"asset":{
		"generator":"Khronos glTF Blender I/O v4.0.44",
		"version":"2.0"
	},
	"scene":0,
	"scenes":[
		{
			"name":"Scene",
			"nodes":[
				0
			]
		}
	],
	"nodes":[
		{
			"mesh":0,
			"name":"dragon"
		}
	],
	"meshes":[
		{
			"name":"dragon",
			"primitives":[
				{
					"attributes":{
						"POSITION":0,
						"NORMAL":1
					},
					"indices":2
				}
			]
		}
	],
	"accessors":[
		{
			"bufferView":0,
			"componentType":5126,
			"count":261389,
			"max":[
				0.20741006731987,
				0.4219925105571747,
				0.5278039574623108
			],
			"min":[
				-0.23987746238708496,
				-0.2829408049583435,
				-0.4722142219543457
			],
			"type":"VEC3"
		},
		{
			"bufferView":1,
			"componentType":5126,
			"count":261389,
			"type":"VEC3"
		},
		{
			"bufferView":2,
			"componentType":5125,
			"count":261390,
			"type":"SCALAR"
		}
	],
	"bufferViews":[
		{
			"buffer":0,
			"byteLength":3136668,
			"byteOffset":0,
			"target":34962
		},
		{
			"buffer":0,
			"byteLength":3136668,
			"byteOffset":3136668,
			"target":34962
		},
		{
			"buffer":0,
			"byteLength":1045560,
			"byteOffset":6273336,
			"target":34963
		}
	],
	"buffers":[
		{
			"byteLength":7318896,
			"uri":"LowRes.bin"
		}
	]
}
